<?xml version="1.0" standalone="no"?>
<!DOCTYPE svg PUBLIC "-//W3C//DTD SVG 20010904//EN"
 "http://www.w3.org/TR/2001/REC-SVG-20010904/DTD/svg10.dtd">
<svg version="1.0" xmlns="http://www.w3.org/2000/svg"
 width="960.000000pt" height="825.000000pt" viewBox="0 0 960.000000 825.000000"
 preserveAspectRatio="xMidYMid meet">
<metadata>
Created by potrace 1.10, written by Peter Selinger 2001-2011
</metadata>
<g transform="translate(0.000000,825.000000) scale(0.100000,-0.100000)"
fill="#000000" stroke="none">
<path d="M9239 7996 c-3 -3 -377 -6 -832 -6 l-827 -2 -15 -21 c-8 -12 -15 -29
-15 -39 0 -9 -6 -32 -14 -50 -8 -18 -21 -52 -30 -75 -33 -87 -49 -129 -61
-158 -7 -16 -20 -49 -29 -72 -74 -199 -77 -207 -92 -235 -8 -14 -14 -33 -14
-41 0 -9 -6 -28 -14 -44 -8 -15 -22 -48 -31 -73 -9 -25 -23 -58 -31 -73 -8
-16 -14 -36 -14 -46 0 -9 -7 -26 -15 -37 -8 -10 -15 -27 -15 -36 0 -9 -6 -29
-14 -45 -14 -26 -28 -63 -63 -158 -8 -22 -21 -53 -29 -68 -8 -16 -14 -36 -14
-45 0 -9 -7 -26 -15 -36 -8 -11 -15 -28 -15 -37 0 -10 -6 -30 -14 -46 -8 -15
-22 -47 -30 -70 -9 -24 -23 -62 -32 -85 -8 -24 -22 -56 -30 -71 -8 -16 -14
-35 -14 -42 0 -7 -6 -26 -14 -42 -8 -15 -21 -46 -29 -68 -8 -22 -23 -60 -32
-85 -9 -25 -24 -63 -32 -85 -8 -22 -21 -52 -29 -67 -8 -14 -14 -33 -14 -41 0
-9 -6 -28 -14 -44 -8 -15 -22 -47 -30 -70 -28 -74 -48 -127 -61 -158 -7 -16
-20 -49 -29 -72 -9 -24 -23 -61 -31 -83 -8 -22 -22 -59 -31 -82 -8 -24 -22
-56 -30 -71 -8 -16 -14 -35 -14 -42 0 -7 -6 -26 -14 -42 -8 -15 -21 -46 -29
-68 -8 -22 -23 -60 -32 -85 -9 -25 -24 -63 -32 -85 -8 -22 -21 -52 -29 -67 -8
-14 -14 -33 -14 -41 0 -9 -6 -28 -14 -44 -13 -26 -25 -56 -62 -155 -24 -66
-46 -122 -59 -153 -12 -28 -26 -64 -59 -152 -33 -89 -49 -130 -62 -155 -8 -14
-14 -34 -14 -45 0 -10 -7 -27 -15 -37 -8 -11 -15 -28 -15 -38 0 -10 -4 -26
-10 -36 -5 -9 -14 -29 -20 -44 l-10 -28 -2380 0 -2380 0 0 48 c-1 26 -7 83
-15 127 -8 44 -15 103 -15 132 0 28 -7 87 -15 130 -8 43 -15 98 -15 123 0 25
-7 83 -15 130 -8 47 -15 108 -15 135 -1 28 -7 79 -15 115 -8 36 -14 88 -15
115 0 46 -9 128 -41 365 -6 47 -15 130 -19 185 -5 55 -13 120 -19 145 -6 25
-11 68 -11 97 0 28 -7 87 -15 130 -8 43 -15 101 -15 130 0 28 -7 87 -15 130
-8 43 -15 101 -15 130 0 28 -7 87 -15 130 -8 43 -15 115 -15 160 0 49 -4 85
-11 89 -6 3 -160 7 -342 7 -374 0 -351 5 -323 -78 9 -25 16 -70 16 -99 0 -30
7 -90 15 -133 8 -43 15 -98 15 -123 0 -25 6 -90 14 -145 19 -124 35 -259 47
-390 4 -55 13 -118 18 -140 6 -22 11 -65 11 -95 0 -30 7 -93 15 -140 8 -47 15
-110 15 -140 1 -30 7 -84 15 -120 8 -36 14 -90 15 -122 0 -31 7 -92 15 -135 8
-43 15 -105 15 -138 1 -33 7 -89 15 -125 8 -36 14 -90 15 -122 0 -31 7 -92 15
-135 8 -43 15 -98 15 -123 0 -25 6 -92 14 -150 30 -214 38 -277 46 -375 5 -55
13 -120 19 -145 6 -25 11 -86 11 -136 0 -62 4 -94 13 -100 7 -5 1111 -7 2547
-4 1394 3 2539 2 2544 -2 5 -4 -7 -41 -27 -82 -21 -41 -37 -79 -37 -85 0 -5
-6 -22 -14 -38 -8 -15 -22 -47 -30 -70 -9 -24 -23 -62 -32 -85 -8 -24 -22 -56
-30 -71 -8 -16 -14 -36 -14 -45 0 -9 -7 -26 -15 -36 -8 -11 -15 -28 -15 -37 0
-10 -6 -30 -14 -46 -8 -15 -22 -48 -31 -73 -9 -25 -23 -60 -31 -78 -8 -18 -14
-39 -14 -48 0 -8 -7 -26 -16 -39 -16 -25 -19 -25 -153 -25 -75 0 -199 -7 -276
-15 -77 -8 -187 -15 -245 -15 -58 0 -166 -7 -240 -15 -74 -8 -184 -15 -245
-15 -60 0 -168 -7 -240 -15 -71 -8 -179 -15 -240 -15 -60 -1 -144 -5 -185 -10
-41 -5 -172 -14 -290 -20 -118 -5 -246 -14 -285 -19 -38 -6 -124 -11 -190 -11
-66 -1 -156 -5 -200 -10 -44 -5 -177 -14 -295 -20 -118 -5 -249 -14 -290 -20
-41 -5 -124 -10 -185 -10 -60 0 -173 -7 -250 -15 -77 -8 -183 -15 -235 -15
-52 0 -167 -7 -255 -15 -88 -8 -192 -15 -230 -15 l-70 0 -14 -52 c-7 -29 -16
-71 -20 -93 -4 -22 -13 -50 -19 -62 -7 -12 -12 -34 -12 -50 -1 -15 -7 -39 -15
-53 -8 -14 -14 -35 -15 -46 0 -12 -9 -42 -20 -68 -16 -35 -18 -50 -10 -65 9
-17 14 -18 42 -9 21 6 279 14 678 19 355 4 762 13 905 18 143 6 438 11 655 11
217 0 530 5 695 10 165 6 622 14 1015 20 393 5 805 12 915 15 110 4 259 7 330
8 l130 2 6 40 c3 22 11 53 18 68 6 16 11 39 11 52 0 14 6 39 14 57 8 18 22 53
31 78 10 25 24 59 31 77 8 17 14 36 14 41 0 6 6 23 14 39 8 15 22 47 30 71 9
23 22 59 30 80 8 20 22 57 31 82 17 43 30 79 62 165 8 22 21 52 29 67 8 14 14
34 14 45 0 10 7 27 15 37 8 11 15 28 15 37 0 10 6 30 14 46 13 26 25 56 62
156 35 93 47 124 60 149 8 14 14 34 14 45 0 10 7 27 15 37 8 11 15 28 15 37 0
10 6 30 14 46 8 15 22 47 30 71 9 23 23 61 32 85 9 23 23 60 31 82 8 22 21 53
29 68 8 16 14 36 14 45 0 9 7 26 15 36 8 11 15 28 15 37 0 10 6 30 14 46 13
26 25 56 62 156 8 20 20 54 28 75 33 88 49 129 62 154 8 14 14 34 14 45 0 10
7 27 15 37 8 11 15 28 15 37 0 10 6 30 14 46 8 15 21 46 29 68 8 22 22 59 31
83 9 23 22 59 30 80 33 88 49 129 62 154 8 14 14 34 14 45 0 10 7 27 15 37 8
11 15 28 15 37 0 10 6 30 14 46 8 15 21 46 29 68 8 22 23 60 32 85 9 25 24 63
32 85 9 22 22 54 29 72 8 17 14 37 14 45 0 7 7 22 15 32 8 11 15 28 15 37 0
10 6 30 14 46 8 15 22 47 30 71 9 23 23 61 32 85 9 23 23 60 31 82 8 22 21 53
29 68 8 16 14 35 14 42 0 7 6 26 14 42 8 15 22 48 31 73 10 25 24 63 32 85 9
22 22 58 30 80 9 22 22 58 30 80 8 22 21 53 29 68 8 16 14 36 14 45 0 9 7 26
15 36 8 11 15 29 15 40 0 12 7 30 15 40 8 11 15 28 15 37 0 10 6 30 14 46 8
15 21 46 29 68 8 22 22 59 31 83 9 23 23 61 32 85 8 23 22 55 30 70 8 16 14
36 14 46 0 9 7 26 15 37 8 10 15 27 15 36 0 9 6 29 14 45 8 15 21 46 29 68 8
22 22 58 30 80 9 22 18 51 21 65 12 54 -21 51 610 50 l586 -1 -2 418 c-3 412
-3 418 -23 421 -12 2 -23 1 -26 -2z m-93 -157 c17 -19 19 -41 22 -236 4 -250
1 -277 -36 -301 -24 -15 -68 -17 -502 -18 -324 -1 -484 -5 -503 -13 -16 -6
-55 -37 -86 -69 -43 -43 -63 -72 -78 -117 -12 -33 -40 -107 -63 -165 -22 -58
-61 -159 -86 -225 -25 -66 -65 -169 -89 -230 -24 -60 -71 -184 -105 -275 -34
-91 -77 -204 -96 -251 -19 -47 -38 -98 -43 -115 -5 -16 -24 -63 -41 -104 -17
-41 -52 -129 -76 -195 -64 -171 -113 -301 -139 -370 -13 -33 -48 -125 -79
-205 -30 -80 -92 -239 -136 -355 -44 -115 -97 -253 -117 -305 -19 -52 -64
-169 -99 -260 -36 -91 -73 -187 -83 -215 -11 -27 -41 -104 -67 -170 -25 -66
-66 -176 -90 -245 -24 -69 -58 -161 -77 -205 -19 -44 -50 -123 -70 -175 -20
-52 -59 -156 -87 -230 -29 -74 -76 -198 -105 -275 -30 -77 -72 -187 -95 -245
-23 -58 -47 -123 -54 -145 -31 -97 -68 -164 -100 -178 -25 -12 -154 -17 -716
-26 -377 -7 -921 -16 -1210 -22 -289 -5 -788 -14 -1110 -19 -322 -5 -848 -14
-1170 -20 -322 -6 -643 -10 -715 -8 l-130 3 2 45 c3 53 29 138 50 162 8 9 29
19 46 22 77 14 384 35 982 66 99 5 236 14 305 20 161 13 407 28 640 40 200 10
390 22 705 45 189 14 300 21 745 45 102 5 241 14 310 20 69 5 240 17 380 25
393 24 374 19 454 104 58 63 73 95 165 356 16 44 47 127 70 185 69 173 80 203
91 254 6 26 8 58 4 70 -11 34 -62 93 -102 118 l-37 23 -2430 2 c-1931 2 -2435
5 -2454 15 -35 19 -49 61 -66 209 -9 74 -22 186 -30 249 -8 63 -24 198 -35
300 -20 181 -55 477 -85 715 -8 66 -21 190 -30 275 -9 85 -22 207 -30 270 -26
210 -89 741 -116 982 -17 153 -10 158 216 158 l154 0 24 -32 c20 -27 27 -53
37 -138 6 -58 18 -163 25 -235 8 -71 19 -166 25 -210 6 -44 17 -138 25 -210 8
-71 18 -141 21 -155 3 -14 12 -88 20 -165 13 -129 25 -240 53 -495 6 -52 13
-106 16 -120 3 -14 12 -90 21 -170 15 -142 31 -294 54 -495 14 -123 26 -170
53 -210 28 -41 86 -91 123 -107 38 -16 4479 -25 4623 -9 167 19 206 64 331
396 57 153 70 185 87 225 8 19 21 55 29 80 9 25 30 83 49 130 18 47 52 135 75
195 23 61 60 155 82 210 53 129 72 180 113 290 18 50 37 101 43 115 6 14 26
66 45 115 19 50 51 131 70 180 20 50 52 133 72 185 20 52 52 136 71 185 20 50
44 113 54 140 51 135 135 355 150 395 10 25 31 81 48 125 16 44 41 107 55 140
14 33 51 128 82 210 75 201 191 497 222 567 47 106 -19 98 799 98 710 0 711 0
730 -21z"/>
<path d="M6130 1630 c-110 -19 -146 -27 -165 -37 -11 -6 -42 -21 -70 -33 -97
-44 -199 -131 -264 -226 -35 -51 -91 -168 -91 -192 0 -9 -7 -35 -15 -57 -21
-59 -19 -205 5 -290 23 -86 42 -138 56 -156 5 -8 19 -32 29 -53 25 -49 136
-164 195 -202 85 -54 163 -88 256 -108 90 -20 176 -20 240 -1 27 8 59 15 71
15 12 0 34 6 50 14 15 7 46 22 68 32 22 10 74 44 116 76 190 142 295 393 260
621 -14 94 -36 164 -68 222 -13 22 -28 51 -33 65 -6 13 -50 63 -98 110 -64 62
-106 94 -157 119 -38 19 -82 40 -97 47 -14 8 -37 14 -51 14 -14 0 -36 4 -49 9
-36 13 -139 19 -188 11z m210 -145 c191 -51 345 -205 396 -398 18 -69 18 -229
-1 -291 -20 -66 -79 -172 -123 -221 -144 -161 -377 -225 -578 -159 -191 62
-309 173 -371 347 -33 94 -37 252 -9 337 68 202 216 344 397 384 85 19 221 19
289 1z"/>
<path d="M1125 1468 c-81 -16 -170 -57 -246 -115 -127 -95 -210 -239 -230
-398 -11 -84 -2 -220 17 -257 8 -15 14 -36 14 -46 0 -11 7 -25 15 -32 8 -7 15
-19 15 -27 0 -23 90 -136 148 -186 55 -46 186 -117 219 -117 10 0 40 -7 67
-15 84 -26 222 -13 321 30 17 7 37 16 45 19 54 23 168 112 203 158 50 65 95
148 116 216 19 58 22 85 19 192 -2 74 -10 139 -18 160 -44 113 -78 168 -150
241 -41 42 -82 79 -90 83 -8 3 -28 15 -45 26 -16 11 -37 22 -45 26 -8 3 -26
10 -40 16 -68 30 -248 43 -335 26z m337 -166 c104 -50 170 -119 226 -232 37
-74 37 -76 37 -200 -1 -124 -1 -125 -38 -200 -54 -109 -127 -181 -234 -233
-84 -40 -89 -41 -192 -42 -88 0 -117 4 -171 24 -137 51 -218 120 -274 234
-122 247 -27 529 217 646 97 47 111 50 242 47 95 -1 104 -4 187 -44z"/>
</g>
</svg>
