<?xml version="1.0" standalone="no"?>
<!DOCTYPE svg PUBLIC "-//W3C//DTD SVG 20010904//EN"
 "http://www.w3.org/TR/2001/REC-SVG-20010904/DTD/svg10.dtd">
<svg version="1.0" xmlns="http://www.w3.org/2000/svg"
 width="22.000000pt" height="58.000000pt" viewBox="0 0 320.000000 275.000000"
 preserveAspectRatio="xMidYMid meet">
<metadata>
Created by potrace 1.10, written by Peter Selinger 2001-2011
</metadata>
<g transform="translate(0.000000,275.000000) scale(0.100000,-0.100000)"
fill="#fff" stroke="none" >
<path d="M2527 2663 c-2 -5 -118 -304 -257 -665 l-254 -658 -793 0 c-566 0
-793 3 -793 11 0 13 -87 767 -98 849 l-7 55 -110 -3 c-60 -1 -110 -4 -111 -5
-2 -3 126 -1109 131 -1123 2 -7 232 -9 741 -8 407 1 787 0 845 -3 l106 -6 -53
-136 -52 -136 -739 -47 c-406 -26 -750 -47 -764 -47 -25 -1 -28 -7 -48 -78
-11 -42 -18 -79 -16 -82 6 -5 1485 17 1662 25 l122 6 6 28 c3 15 154 414 335
886 l328 859 196 3 196 2 0 140 0 140 -284 0 c-157 0 -287 -3 -289 -7z"/>
<path d="M1997 536 c-119 -43 -182 -166 -146 -287 16 -51 62 -105 112 -131 53
-28 156 -31 204 -5 139 74 170 241 67 356 -65 73 -152 97 -237 67z"/>
<path d="M359 487 c-91 -34 -139 -102 -139 -196 0 -95 57 -167 153 -192 90
-25 185 20 227 106 31 63 25 147 -13 202 -50 72 -152 108 -228 80z"/>
</g>
</svg>
